<mxfile host="app.diagrams.net" modified="2021-06-06T13:01:53.624Z" agent="5.0 (Windows NT 10.0; Win64; x64) AppleWebKit/537.36 (KHTML, like Gecko) Chrome/90.0.4430.212 Safari/537.36" etag="HQiO82ry1vd0jCeTgy-y" version="14.7.4" type="github">
  <diagram id="30AWFoTqBa_I6fCgeATw" name="Page-1">
    <mxGraphModel dx="1422" dy="706" grid="1" gridSize="10" guides="1" tooltips="1" connect="1" arrows="1" fold="1" page="1" pageScale="1" pageWidth="1100" pageHeight="850" math="0" shadow="0">
      <root>
        <mxCell id="0" />
        <mxCell id="1" parent="0" />
        <mxCell id="_EFiUX9LIUJbC6nPYToo-28" value="" style="rounded=0;whiteSpace=wrap;html=1;fillColor=#d5e8d4;strokeColor=#82b366;" vertex="1" parent="1">
          <mxGeometry x="20" y="170" width="350" height="250" as="geometry" />
        </mxCell>
        <mxCell id="_EFiUX9LIUJbC6nPYToo-42" style="edgeStyle=orthogonalEdgeStyle;rounded=0;orthogonalLoop=1;jettySize=auto;html=1;exitX=0.5;exitY=1;exitDx=0;exitDy=0;" edge="1" parent="1" source="_EFiUX9LIUJbC6nPYToo-4" target="_EFiUX9LIUJbC6nPYToo-5">
          <mxGeometry relative="1" as="geometry" />
        </mxCell>
        <mxCell id="_EFiUX9LIUJbC6nPYToo-56" value="和果园消息列表取交集，获取优先级最高的下发" style="edgeLabel;html=1;align=center;verticalAlign=middle;resizable=0;points=[];" vertex="1" connectable="0" parent="_EFiUX9LIUJbC6nPYToo-42">
          <mxGeometry x="-0.42" y="-1" relative="1" as="geometry">
            <mxPoint as="offset" />
          </mxGeometry>
        </mxCell>
        <mxCell id="_EFiUX9LIUJbC6nPYToo-43" style="edgeStyle=orthogonalEdgeStyle;rounded=0;orthogonalLoop=1;jettySize=auto;html=1;exitX=1;exitY=0.5;exitDx=0;exitDy=0;entryX=0;entryY=0.5;entryDx=0;entryDy=0;" edge="1" parent="1" source="_EFiUX9LIUJbC6nPYToo-4" target="_EFiUX9LIUJbC6nPYToo-32">
          <mxGeometry relative="1" as="geometry">
            <mxPoint x="840" y="150" as="targetPoint" />
          </mxGeometry>
        </mxCell>
        <mxCell id="_EFiUX9LIUJbC6nPYToo-4" value="算法实验有数据下发" style="rhombus;whiteSpace=wrap;html=1;" vertex="1" parent="1">
          <mxGeometry x="660" y="150" width="80" height="80" as="geometry" />
        </mxCell>
        <mxCell id="_EFiUX9LIUJbC6nPYToo-5" value="模板组下发" style="whiteSpace=wrap;html=1;" vertex="1" parent="1">
          <mxGeometry x="640" y="530" width="120" height="60" as="geometry" />
        </mxCell>
        <mxCell id="_EFiUX9LIUJbC6nPYToo-35" style="edgeStyle=orthogonalEdgeStyle;rounded=0;orthogonalLoop=1;jettySize=auto;html=1;exitX=0.5;exitY=1;exitDx=0;exitDy=0;entryX=0.5;entryY=0;entryDx=0;entryDy=0;" edge="1" parent="1" source="_EFiUX9LIUJbC6nPYToo-9" target="_EFiUX9LIUJbC6nPYToo-34">
          <mxGeometry relative="1" as="geometry" />
        </mxCell>
        <mxCell id="_EFiUX9LIUJbC6nPYToo-40" style="edgeStyle=orthogonalEdgeStyle;rounded=0;orthogonalLoop=1;jettySize=auto;html=1;exitX=1;exitY=0.5;exitDx=0;exitDy=0;entryX=0.5;entryY=0;entryDx=0;entryDy=0;" edge="1" parent="1" source="_EFiUX9LIUJbC6nPYToo-9" target="_EFiUX9LIUJbC6nPYToo-4">
          <mxGeometry relative="1" as="geometry" />
        </mxCell>
        <mxCell id="_EFiUX9LIUJbC6nPYToo-9" value="原来下发" style="whiteSpace=wrap;html=1;" vertex="1" parent="1">
          <mxGeometry x="490" y="100" width="120" height="50" as="geometry" />
        </mxCell>
        <mxCell id="_EFiUX9LIUJbC6nPYToo-14" value="2*2直接下发兜底" style="whiteSpace=wrap;html=1;" vertex="1" parent="1">
          <mxGeometry x="850" y="530" width="120" height="60" as="geometry" />
        </mxCell>
        <mxCell id="_EFiUX9LIUJbC6nPYToo-19" style="edgeStyle=orthogonalEdgeStyle;rounded=0;orthogonalLoop=1;jettySize=auto;html=1;exitX=0.5;exitY=1;exitDx=0;exitDy=0;entryX=1;entryY=0.617;entryDx=0;entryDy=0;entryPerimeter=0;" edge="1" parent="1" source="_EFiUX9LIUJbC6nPYToo-15" target="_EFiUX9LIUJbC6nPYToo-17">
          <mxGeometry relative="1" as="geometry" />
        </mxCell>
        <mxCell id="_EFiUX9LIUJbC6nPYToo-21" style="edgeStyle=orthogonalEdgeStyle;rounded=0;orthogonalLoop=1;jettySize=auto;html=1;exitX=0.5;exitY=1;exitDx=0;exitDy=0;" edge="1" parent="1" source="_EFiUX9LIUJbC6nPYToo-15" target="_EFiUX9LIUJbC6nPYToo-16">
          <mxGeometry relative="1" as="geometry" />
        </mxCell>
        <mxCell id="_EFiUX9LIUJbC6nPYToo-15" value="变透明" style="rounded=0;whiteSpace=wrap;html=1;" vertex="1" parent="1">
          <mxGeometry x="240" y="10" width="120" height="60" as="geometry" />
        </mxCell>
        <mxCell id="_EFiUX9LIUJbC6nPYToo-30" style="edgeStyle=orthogonalEdgeStyle;rounded=0;orthogonalLoop=1;jettySize=auto;html=1;exitX=0.5;exitY=1;exitDx=0;exitDy=0;entryX=0.5;entryY=0;entryDx=0;entryDy=0;" edge="1" parent="1" source="_EFiUX9LIUJbC6nPYToo-16" target="_EFiUX9LIUJbC6nPYToo-22">
          <mxGeometry relative="1" as="geometry">
            <Array as="points">
              <mxPoint x="300" y="440" />
              <mxPoint x="240" y="440" />
            </Array>
          </mxGeometry>
        </mxCell>
        <mxCell id="_EFiUX9LIUJbC6nPYToo-16" value="存在dau变透明" style="rounded=0;whiteSpace=wrap;html=1;" vertex="1" parent="1">
          <mxGeometry x="240" y="250" width="120" height="60" as="geometry" />
        </mxCell>
        <mxCell id="_EFiUX9LIUJbC6nPYToo-20" style="edgeStyle=orthogonalEdgeStyle;rounded=0;orthogonalLoop=1;jettySize=auto;html=1;exitX=0.5;exitY=1;exitDx=0;exitDy=0;entryX=0.5;entryY=0;entryDx=0;entryDy=0;" edge="1" parent="1" source="_EFiUX9LIUJbC6nPYToo-17" target="_EFiUX9LIUJbC6nPYToo-18">
          <mxGeometry relative="1" as="geometry" />
        </mxCell>
        <mxCell id="_EFiUX9LIUJbC6nPYToo-17" value="果园桶号的" style="rounded=0;whiteSpace=wrap;html=1;" vertex="1" parent="1">
          <mxGeometry x="60" y="190" width="120" height="60" as="geometry" />
        </mxCell>
        <mxCell id="_EFiUX9LIUJbC6nPYToo-23" style="edgeStyle=orthogonalEdgeStyle;rounded=0;orthogonalLoop=1;jettySize=auto;html=1;exitX=0.5;exitY=1;exitDx=0;exitDy=0;" edge="1" parent="1" source="_EFiUX9LIUJbC6nPYToo-18" target="_EFiUX9LIUJbC6nPYToo-22">
          <mxGeometry relative="1" as="geometry">
            <Array as="points">
              <mxPoint x="120" y="440" />
              <mxPoint x="240" y="440" />
            </Array>
          </mxGeometry>
        </mxCell>
        <mxCell id="_EFiUX9LIUJbC6nPYToo-18" value="白明单不变透明" style="rounded=0;whiteSpace=wrap;html=1;" vertex="1" parent="1">
          <mxGeometry x="60" y="290" width="120" height="60" as="geometry" />
        </mxCell>
        <mxCell id="_EFiUX9LIUJbC6nPYToo-26" value="" style="edgeStyle=orthogonalEdgeStyle;rounded=0;orthogonalLoop=1;jettySize=auto;html=1;" edge="1" parent="1" source="_EFiUX9LIUJbC6nPYToo-22" target="_EFiUX9LIUJbC6nPYToo-25">
          <mxGeometry relative="1" as="geometry" />
        </mxCell>
        <mxCell id="_EFiUX9LIUJbC6nPYToo-27" style="edgeStyle=orthogonalEdgeStyle;rounded=0;orthogonalLoop=1;jettySize=auto;html=1;exitX=1;exitY=0.5;exitDx=0;exitDy=0;entryX=0;entryY=0.5;entryDx=0;entryDy=0;" edge="1" parent="1" source="_EFiUX9LIUJbC6nPYToo-22" target="_EFiUX9LIUJbC6nPYToo-9">
          <mxGeometry relative="1" as="geometry">
            <mxPoint x="490" y="120" as="targetPoint" />
            <Array as="points">
              <mxPoint x="430" y="520" />
              <mxPoint x="430" y="125" />
            </Array>
          </mxGeometry>
        </mxCell>
        <mxCell id="_EFiUX9LIUJbC6nPYToo-22" value="是否可变透明" style="rhombus;whiteSpace=wrap;html=1;" vertex="1" parent="1">
          <mxGeometry x="200" y="480" width="80" height="80" as="geometry" />
        </mxCell>
        <mxCell id="_EFiUX9LIUJbC6nPYToo-25" value="下发透明模板" style="whiteSpace=wrap;html=1;" vertex="1" parent="1">
          <mxGeometry x="180" y="600" width="120" height="60" as="geometry" />
        </mxCell>
        <mxCell id="_EFiUX9LIUJbC6nPYToo-29" value="变透明" style="text;html=1;align=center;verticalAlign=middle;resizable=0;points=[];autosize=1;strokeColor=none;" vertex="1" parent="1">
          <mxGeometry x="20" y="170" width="50" height="20" as="geometry" />
        </mxCell>
        <mxCell id="_EFiUX9LIUJbC6nPYToo-33" style="edgeStyle=orthogonalEdgeStyle;rounded=0;orthogonalLoop=1;jettySize=auto;html=1;exitX=0.5;exitY=1;exitDx=0;exitDy=0;entryX=0.5;entryY=0;entryDx=0;entryDy=0;" edge="1" parent="1" source="_EFiUX9LIUJbC6nPYToo-32" target="_EFiUX9LIUJbC6nPYToo-14">
          <mxGeometry relative="1" as="geometry" />
        </mxCell>
        <mxCell id="_EFiUX9LIUJbC6nPYToo-45" style="edgeStyle=orthogonalEdgeStyle;rounded=0;orthogonalLoop=1;jettySize=auto;html=1;exitX=1;exitY=0.5;exitDx=0;exitDy=0;" edge="1" parent="1" source="_EFiUX9LIUJbC6nPYToo-32" target="_EFiUX9LIUJbC6nPYToo-46">
          <mxGeometry relative="1" as="geometry">
            <mxPoint x="1020" y="190" as="targetPoint" />
          </mxGeometry>
        </mxCell>
        <mxCell id="_EFiUX9LIUJbC6nPYToo-32" value="判断大小" style="rhombus;whiteSpace=wrap;html=1;" vertex="1" parent="1">
          <mxGeometry x="870" y="150" width="80" height="80" as="geometry" />
        </mxCell>
        <mxCell id="_EFiUX9LIUJbC6nPYToo-36" style="edgeStyle=orthogonalEdgeStyle;rounded=0;orthogonalLoop=1;jettySize=auto;html=1;exitX=0.5;exitY=1;exitDx=0;exitDy=0;" edge="1" parent="1" source="_EFiUX9LIUJbC6nPYToo-34" target="_EFiUX9LIUJbC6nPYToo-37">
          <mxGeometry relative="1" as="geometry">
            <mxPoint x="550" y="560" as="targetPoint" />
          </mxGeometry>
        </mxCell>
        <mxCell id="_EFiUX9LIUJbC6nPYToo-34" value="是否定制" style="rhombus;whiteSpace=wrap;html=1;" vertex="1" parent="1">
          <mxGeometry x="510" y="300" width="80" height="80" as="geometry" />
        </mxCell>
        <mxCell id="_EFiUX9LIUJbC6nPYToo-37" value="下发定制模板" style="rounded=1;whiteSpace=wrap;html=1;" vertex="1" parent="1">
          <mxGeometry x="490" y="530" width="120" height="60" as="geometry" />
        </mxCell>
        <mxCell id="_EFiUX9LIUJbC6nPYToo-46" value="1*1" style="rounded=0;whiteSpace=wrap;html=1;" vertex="1" parent="1">
          <mxGeometry x="1000" y="530" width="120" height="60" as="geometry" />
        </mxCell>
        <mxCell id="_EFiUX9LIUJbC6nPYToo-50" value="如果是红包会做沉默用户的标识下发，轮训实验组" style="text;html=1;align=center;verticalAlign=middle;resizable=0;points=[];autosize=1;strokeColor=none;" vertex="1" parent="1">
          <mxGeometry x="1080" y="185" width="280" height="20" as="geometry" />
        </mxCell>
        <mxCell id="_EFiUX9LIUJbC6nPYToo-51" value="如果水果就随机下发一个" style="text;html=1;align=center;verticalAlign=middle;resizable=0;points=[];autosize=1;strokeColor=none;" vertex="1" parent="1">
          <mxGeometry x="1080" y="255" width="150" height="20" as="geometry" />
        </mxCell>
        <mxCell id="_EFiUX9LIUJbC6nPYToo-54" value="社交消息25（假的，沉默出）/28（真的、活跃用户）" style="text;html=1;align=center;verticalAlign=middle;resizable=0;points=[];autosize=1;strokeColor=none;" vertex="1" parent="1">
          <mxGeometry x="1080" y="325" width="300" height="20" as="geometry" />
        </mxCell>
        <mxCell id="_EFiUX9LIUJbC6nPYToo-55" value="动效、实验组出动效、沉默用户限制" style="text;html=1;align=center;verticalAlign=middle;resizable=0;points=[];autosize=1;strokeColor=none;" vertex="1" parent="1">
          <mxGeometry x="1080" y="395" width="210" height="20" as="geometry" />
        </mxCell>
        <mxCell id="_EFiUX9LIUJbC6nPYToo-59" value="&lt;b&gt;默认随机算法&lt;/b&gt;" style="text;html=1;align=center;verticalAlign=middle;resizable=0;points=[];autosize=1;strokeColor=none;" vertex="1" parent="1">
          <mxGeometry x="1080" y="460" width="90" height="20" as="geometry" />
        </mxCell>
        <mxCell id="_EFiUX9LIUJbC6nPYToo-60" value="" style="rounded=0;whiteSpace=wrap;html=1;fillColor=#ffe6cc;strokeColor=#d79b00;" vertex="1" parent="1">
          <mxGeometry x="390" y="200" width="110" height="170" as="geometry" />
        </mxCell>
        <mxCell id="_EFiUX9LIUJbC6nPYToo-61" value="算法消息实验" style="rounded=0;whiteSpace=wrap;html=1;" vertex="1" parent="1">
          <mxGeometry x="395" y="230" width="100" height="20" as="geometry" />
        </mxCell>
        <mxCell id="_EFiUX9LIUJbC6nPYToo-64" value="社交长期实验" style="rounded=0;whiteSpace=wrap;html=1;" vertex="1" parent="1">
          <mxGeometry x="395" y="260" width="100" height="20" as="geometry" />
        </mxCell>
        <mxCell id="_EFiUX9LIUJbC6nPYToo-65" value="社交实验" style="rounded=0;whiteSpace=wrap;html=1;" vertex="1" parent="1">
          <mxGeometry x="395" y="290" width="100" height="20" as="geometry" />
        </mxCell>
        <mxCell id="_EFiUX9LIUJbC6nPYToo-66" value="动效实验" style="rounded=0;whiteSpace=wrap;html=1;" vertex="1" parent="1">
          <mxGeometry x="395" y="320" width="100" height="20" as="geometry" />
        </mxCell>
        <mxCell id="_EFiUX9LIUJbC6nPYToo-67" value="AB实验" style="text;html=1;align=center;verticalAlign=middle;resizable=0;points=[];autosize=1;strokeColor=none;" vertex="1" parent="1">
          <mxGeometry x="380" y="200" width="60" height="20" as="geometry" />
        </mxCell>
        <mxCell id="_EFiUX9LIUJbC6nPYToo-69" value="模板组实验（templateGroup）" style="rounded=0;whiteSpace=wrap;html=1;fillColor=#e1d5e7;strokeColor=#9673a6;" vertex="1" parent="1">
          <mxGeometry x="380" y="420" width="120" height="60" as="geometry" />
        </mxCell>
      </root>
    </mxGraphModel>
  </diagram>
</mxfile>
